<svg version="1.0" xmlns="http://www.w3.org/2000/svg" width="85.333" height="85.333" viewBox="0 0 64 64"><path d="M8 10c0 1.7-.7 2-4 2H0l.2 21.7.3 21.8h20.8c13 0 20.8-.4 21-1 .1-.6-1.9-1.1-4.5-1.3C27 52.5 35.9 48 48 48h8V15h5v38h-4.5c-3.4 0-4.5.4-4.5 1.5 0 1.3 1.1 1.5 5.8 1.3l5.7-.3.3-21.8L64 12h-4c-3.3 0-4-.3-4-2 0-1.8-.7-2-8.2-2-4.6.1-10 .7-12 1.4-3.2 1.1-4.4 1.1-7.5 0-2.1-.7-7.5-1.3-12-1.4C8.7 8 8 8.2 8 10zm20.8 2.6c2.1 1.5 2.2 2.1 2.2 18.5 0 13.4-.3 16.8-1.2 16.2-.7-.4-5.3-1-10.3-1.3l-9-.5-.3-17.3L10 11h8.3c5.8 0 8.9.5 10.5 1.6zm25 15.6-.3 17.3-9 .5c-4.9.3-9.6.9-10.2 1.3-1 .6-1.3-2.8-1.3-16.2C33 10.6 32.7 11 45.7 11H54l-.2 17.2zM8 31.5V48h8c4.8 0 9.5.6 11.5 1.4C34.1 52.2 31.6 53 17 53H3V15h5v16.5z"/><path d="M15.5 24c-.3.5 0 1.3.8 1.6 2.3.8 9.2 0 9.2-1.1 0-1.4-9.2-1.9-10-.5zm.5 8c0 .5 2.3 1 5 1 2.8 0 5-.5 5-1 0-.6-2.2-1-5-1-2.7 0-5 .4-5 1zm-.5 7c-.3.5 0 1.3.8 1.6 2.3.8 9.2 0 9.2-1.1 0-1.4-9.2-1.9-10-.5zm23-15c-.3.5 0 1.3.8 1.6 2.3.8 9.2 0 9.2-1.1 0-1.4-9.2-1.9-10-.5zm-.5 8c0 .5 2.3 1 5 1 2.8 0 5-.5 5-1 0-.6-2.2-1-5-1-2.7 0-5 .4-5 1zm8.6 21.9c-.4.5-.2 1.2.3 1.5.5.4 1.2.2 1.5-.3.4-.5.2-1.2-.3-1.5-.5-.4-1.2-.2-1.5.3z"/></svg>