<svg version="1.0" xmlns="http://www.w3.org/2000/svg" width="85.333" height="85.333" viewBox="0 0 64 64"><g><path d="M2.2 1.6C0 3.1 0 3.3 0 32s0 28.9 2.2 30.4c1.9 1.4 6.5 1.6 30 1.6 26.5 0 27.9-.1 29.8-2s2-3.3 2-30-.1-28.1-2-30-3.3-2-29.8-2C8.7 0 4.1.2 2.2 1.6zM60 9.5V15H4V4h56v5.5zm0 30V60H4V19h56v20.5z"/><path d="M8 9.5c0 .8.7 1.5 1.5 1.5s1.5-.7 1.5-1.5S10.3 8 9.5 8 8 8.7 8 9.5zm7 0c0 .8.9 1.5 2 1.5s2-.7 2-1.5S18.1 8 17 8s-2 .7-2 1.5zm8 0c0 .8.7 1.5 1.5 1.5s1.5-.7 1.5-1.5S25.3 8 24.5 8 23 8.7 23 9.5zm18.7-.9c-1.6 1.6.9 2.4 7.4 2.4 5.5 0 6.9-.3 6.9-1.5S54.6 8 49.2 8c-3.8 0-7.2.3-7.5.6zM30.6 38.1C24.7 51.8 24.1 54 26.4 54 27.7 54 39 29.4 39 26.4c0-.8-.6-1.4-1.4-1.4s-3.7 5.3-7 13.1zm-15.5-4c-2.8 2.2-5.1 4.7-5.1 5.4 0 1.3 9.5 9.5 11.1 9.5 2.6 0 1.7-2.7-2.1-5.8l-4.3-3.6 4.3-3.7c2.4-2.1 4-4.2 3.6-4.8-1.1-1.7-2-1.4-7.5 3zm26.3-3c-.4.6 1.2 2.7 3.6 4.8l4.3 3.7-4.3 3.6c-3.8 3.1-4.7 5.8-2.1 5.8 1.6 0 11.1-8.2 11.1-9.5S44.5 30 42.9 30c-.4 0-1.1.5-1.5 1.1z"/></g></svg>