<svg version="1.0" xmlns="http://www.w3.org/2000/svg" width="85.333" height="85.333" viewBox="0 0 64 64"><path d="M25.7 1c-4.2 1.3-9.5 5.7-11.4 9.3-4.2 8.1-3.5 15.8 2.2 24.4 1.9 2.9 3.6 5.7 3.7 6.3.2.7-2.3 2-5.6 3-10.2 3.2-13.3 8.6-7.9 13.6 9.1 8.4 42.6 8.1 51.2-.5 1.2-1.2 2.1-3.1 2.1-4.4 0-4.2-3.4-6.4-15.8-10.3-1.1-.3-.9-1.2.7-3.7 8-12 9.4-19.8 5-27.8C45.3 2.6 34.4-1.8 25.7 1zm14.9 5.5c2.9 1.7 4.9 3.9 6.4 7 3.4 7 2.3 11-6.6 25.4-4.2 6.7-8 12.1-8.4 12.1s-4.2-5.4-8.4-12.1c-8.9-14.3-10-18.4-6.6-25.4 4.3-8.9 14.9-12.1 23.6-7zm-13.4 45c1.8 3 4 5.5 4.8 5.5s3-2.5 4.9-5.6l3.3-5.5 4.1.6c5.4.9 11.7 4.1 11.7 6 0 3.9-11.5 7.5-24 7.5S8 56.4 8 52.5c0-2.3 8.4-6 14.2-6.4 1-.1 2.9 2 5 5.4z"/><path d="M28.3 12.5c-6.2 2.7-7.4 10.6-2.2 14.9 3.9 3.3 7.9 3.3 11.8 0 5.3-4.4 4-12.3-2.4-15-4-1.6-3.2-1.7-7.2.1zm6.3 3.3c2.4 1.6 3.3 4.8 2.1 7.3-1 1.8-2.1 2.4-4.7 2.4s-3.7-.6-4.7-2.4c-1.7-3.6.9-8.1 4.7-8.1.8 0 2 .4 2.6.8z"/></svg>