<svg version="1.0" xmlns="http://www.w3.org/2000/svg" width="85.333" height="85.333" viewBox="0 0 64 64"><path d="M2.5 2.5 0 4.9v54.2l2.5 2.4L4.9 64h54.2l2.4-2.5 2.5-2.4V4.9l-2.5-2.4L59.1 0H4.9L2.5 2.5zm56.3 2.7c.7.7 1.2 2.5 1.2 4V12H4V9.2c0-1.5.5-3.3 1.2-4 1.7-1.7 51.9-1.7 53.6 0zM60 36.8c0 14.8-.3 21.1-1.2 22-1.7 1.7-51.9 1.7-53.6 0-.9-.9-1.2-7.2-1.2-22V16h56v20.8z"/><path d="M6.5 7c-.4.7-.3 1.6.3 2.2 1.4 1.4 5.7.6 5.7-1.2s-5-2.6-6-1zm9.2-.4c-1.7 1.8-.6 3.5 2.1 3.2 1.6-.2 2.7-.9 2.7-1.8 0-1.6-3.6-2.6-4.8-1.4zm7.8.5c-1.6 2.4 1.8 2.9 17.6 2.7 13.8-.3 16.4-.5 16.4-1.8s-2.6-1.5-16.7-1.8c-11.4-.2-16.9.1-17.3.9zM27.8 21c-.9 1.3-2.4 2-4.5 2-4 0-6.3 2.3-6.3 6.3 0 2.1-.7 3.6-2 4.5-2.6 1.6-2.6 6.3 0 8.7 1.1 1 2 3.1 2 4.6 0 3.7 2.4 5.9 6.3 5.9 2.1 0 3.6.7 4.5 2 1.6 2.6 6.3 2.6 8.7 0 1-1.1 3.1-2 4.6-2 3.5 0 5.9-2.4 5.9-5.9 0-1.5.9-3.6 2-4.6 2.6-2.4 2.6-7.1 0-8.7-1.3-.9-2-2.4-2-4.5 0-4-2.4-6.5-5.9-6.1-1.7.2-3.2-.4-4.4-2-2.4-2.8-7.2-3-8.9-.2zm6.2 3.9c0 2.9 2.4 4.5 4.8 3 1.1-.7 2.7-.9 3.7-.5 1.6.6 1.6.8.1 3.1-2 3-1.1 5.5 2 5.5 1.7 0 2.4.6 2.4 2 0 1.3-.7 2-1.9 2-3.2 0-4.5 2.5-2.6 5.3 1.3 2 1.3 2.6.2 3.5-1 .9-1.9.7-3.6-.4-2.6-1.8-5.1-.5-5.1 2.7 0 1.2-.7 1.9-2 1.9s-2-.7-2-1.9c0-3.2-2.5-4.5-5.1-2.7-1.7 1.1-2.6 1.3-3.6.4-1.1-.9-1.1-1.5.2-3.5 1.9-2.8.6-5.3-2.6-5.3-1.2 0-1.9-.7-1.9-2 0-1.4.7-2 2.4-2 3 0 4-2.5 2.1-5.3-1.1-1.5-1.2-2.4-.3-3.4.9-1.1 1.5-1.1 3.4.2 2.9 1.9 5.4 1 5.4-2.1 0-1.7.6-2.4 2-2.4 1.3 0 2 .7 2 1.9z"/><path d="M27.7 33.8c-2.2 2.4-2.1 6.5.1 8.5 4 3.6 10.2.9 10.2-4.5 0-5.1-6.9-7.8-10.3-4zM34 38c0 1.3-.7 2-2 2s-2-.7-2-2 .7-2 2-2 2 .7 2 2z"/></svg>