<svg version="1.0" xmlns="http://www.w3.org/2000/svg" width="85.333" height="85.333" viewBox="0 0 64 64"><path d="M20.7 5.8c-1 1-1.7 2.6-1.7 3.5 0 1.4-1.2 1.7-7.9 1.7-4.4 0-8.6.3-9.5.6C.2 12.1 0 15.1 0 34.5c0 20.2.2 22.3 1.8 23.8S7 60 32.2 60c26.3 0 28.6-.1 30.1-1.8 1.5-1.6 1.7-4.8 1.7-23.9 0-19.2-.2-22.2-1.6-22.7-.9-.3-5.1-.6-9.5-.6-7 0-7.9-.2-7.9-1.8 0-4-3.1-5.2-13.2-5.2-7.9 0-9.8.3-11.1 1.8zM41 9.5c0 1.2-1.7 1.5-9 1.5s-9-.3-9-1.5S24.7 8 32 8s9 .3 9 1.5zm18 6.3c0 .4-1.3 4.6-2.8 9.2l-2.9 8.5-6 .3c-5.4.3-6.1.1-6.6-1.8-.5-1.8-1.3-2-8.7-2s-8.2.2-8.7 2c-.5 1.9-1.2 2.1-6.6 1.8l-6-.3L7.8 25C6.3 20.4 5 16.2 5 15.8s12.2-.8 27-.8c14.9 0 27 .4 27 .8zM9.1 36.2c1.5 1.3 3.9 1.8 8 1.8 4.6 0 5.9.3 5.9 1.5s1.7 1.5 9 1.5 9-.3 9-1.5 1.3-1.5 5.9-1.5c6.9 0 9.4-1.6 11.5-7.5 1.4-3.8 1.5-3.3 1.5 10.7L60 56H4l.1-14.8c0-14 .1-14.5 1.5-10.7.8 2.2 2.4 4.8 3.5 5.7zm28.7-.5c-.3 1.5-1.4 1.8-5.8 1.8s-5.5-.3-5.8-1.8.5-1.7 5.8-1.7 6.1.2 5.8 1.7z"/></svg>